<svg width="68" height="18" viewBox="0 0 68 18" fill="none" xmlns="http://www.w3.org/2000/svg">
<rect width="68" height="18" fill="#1E1E1E"/>
<g clip-path="url(#clip0_0_1)">
<rect width="68" height="18" fill="white"/>
<path d="M1.596 12.024C1.428 12.024 1.312 11.832 1.248 11.448C1.192 11.056 1.144 10.368 1.104 9.384L1.068 8.508C1.052 8.204 0.996 7.736 0.9 7.104C0.892 7.024 0.86 6.78 0.804 6.372C0.748 5.964 0.72 5.604 0.72 5.292C0.72 5.244 0.744 5.184 0.792 5.112C0.84 5.032 0.9 4.992 0.972 4.992C1.076 4.992 1.144 5.04 1.176 5.136C1.216 5.232 1.24 5.328 1.248 5.424C1.264 5.512 1.272 5.568 1.272 5.592C1.32 5.728 1.356 5.916 1.38 6.156C1.404 6.388 1.424 6.636 1.44 6.9C1.472 7.42 1.504 7.792 1.536 8.016L1.908 7.488C2.428 6.72 2.896 6.104 3.312 5.64C3.736 5.176 4.148 4.952 4.548 4.968C4.58 5 4.596 5.04 4.596 5.088C4.596 5.168 4.556 5.26 4.476 5.364C4.396 5.468 4.276 5.604 4.116 5.772L3.864 6.036C3.776 6.14 3.508 6.436 3.06 6.924C2.748 7.252 2.492 7.532 2.292 7.764C2.092 7.996 1.94 8.208 1.836 8.4C2.188 8.888 2.604 9.32 3.084 9.696C3.572 10.072 4.208 10.516 4.992 11.028L5.352 11.256C5.496 11.312 5.608 11.388 5.688 11.484C5.776 11.572 5.82 11.664 5.82 11.76C5.82 11.808 5.808 11.856 5.784 11.904C5.728 12 5.66 12.048 5.58 12.048C5.492 12.048 5.336 11.992 5.112 11.88L4.464 11.424C3.76 10.96 3.16 10.528 2.664 10.128C2.168 9.728 1.824 9.348 1.632 8.988L1.704 9.888C1.776 10.712 1.812 11.264 1.812 11.544C1.812 11.744 1.796 11.876 1.764 11.94C1.732 11.996 1.676 12.024 1.596 12.024ZM9.13622 12C8.62422 12 8.15222 11.9 7.72022 11.7C7.28822 11.5 6.94422 11.216 6.68822 10.848C6.43222 10.48 6.30422 10.056 6.30422 9.576C6.30422 9.04 6.40422 8.54 6.60422 8.076C6.80422 7.604 7.09622 7.228 7.48022 6.948C7.87222 6.66 8.32822 6.516 8.84822 6.516C9.39222 6.516 9.80422 6.692 10.0842 7.044C10.3642 7.388 10.4962 7.824 10.4802 8.352C10.4802 8.824 10.2922 9.184 9.91622 9.432C9.54822 9.68 9.07622 9.804 8.50022 9.804C8.41222 9.804 8.28022 9.796 8.10422 9.78C7.81622 9.748 7.61222 9.704 7.49222 9.648C7.37222 9.592 7.31222 9.48 7.31222 9.312C7.31222 9.256 7.32822 9.216 7.36022 9.192C7.39222 9.16 7.45622 9.144 7.55222 9.144C7.65622 9.144 7.84022 9.168 8.10422 9.216C8.36022 9.264 8.58822 9.288 8.78822 9.288C9.52422 9.288 9.89222 8.968 9.89222 8.328C9.89222 7.944 9.82022 7.64 9.67622 7.416C9.54022 7.192 9.29622 7.08 8.94422 7.08C8.56022 7.08 8.21622 7.184 7.91222 7.392C7.60822 7.592 7.37222 7.856 7.20422 8.184C7.04422 8.512 6.96422 8.86 6.96422 9.228C6.96422 9.86 7.14022 10.38 7.49222 10.788C7.84422 11.188 8.38822 11.388 9.12422 11.388C9.21222 11.388 9.36022 11.38 9.56822 11.364C9.65622 11.356 9.76422 11.332 9.89222 11.292C10.0202 11.252 10.1122 11.224 10.1682 11.208C10.5122 11.088 10.7642 11.028 10.9242 11.028C11.0442 11.028 11.1362 11.06 11.2002 11.124C11.0002 11.428 10.7002 11.652 10.3002 11.796C9.90822 11.932 9.52022 12 9.13622 12ZM13.7471 12.012C13.5151 12.012 13.2111 11.668 12.8351 10.98C12.4671 10.284 12.0391 9.404 11.5511 8.34L11.2031 7.596C11.2031 7.516 11.2511 7.44 11.3471 7.368C11.4431 7.288 11.5871 7.252 11.7791 7.26C11.8271 7.348 11.9791 7.672 12.2351 8.232C12.5391 8.888 12.7951 9.428 13.0031 9.852C13.2191 10.268 13.4791 10.716 13.7831 11.196C13.9191 10.7 14.0711 10.236 14.2391 9.804C14.4151 9.364 14.6751 8.744 15.0191 7.944L15.1991 7.524C15.2471 7.428 15.3391 7.38 15.4751 7.38C15.5711 7.38 15.6551 7.404 15.7271 7.452C15.7991 7.5 15.8351 7.568 15.8351 7.656C15.8351 7.736 15.7951 7.82 15.7151 7.908C15.6591 7.964 15.5791 8.128 15.4751 8.4C15.3711 8.664 15.2631 8.96 15.1511 9.288C14.8471 10.152 14.5831 10.828 14.3591 11.316C14.1351 11.796 13.9311 12.028 13.7471 12.012ZM17.116 12.012C16.932 12.012 16.784 11.744 16.672 11.208C16.56 10.664 16.488 10.196 16.456 9.804C16.424 9.412 16.38 8.792 16.324 7.944C16.316 7.808 16.312 7.632 16.312 7.416C16.312 7.144 16.332 6.956 16.372 6.852C16.42 6.748 16.496 6.696 16.6 6.696C16.688 6.696 16.756 6.716 16.804 6.756C16.86 6.788 16.908 6.844 16.948 6.924L16.936 7.404C16.936 7.916 16.96 8.4 17.008 8.856C17.064 9.312 17.148 9.924 17.26 10.692C17.324 11.028 17.368 11.304 17.392 11.52C17.408 11.632 17.388 11.744 17.332 11.856C17.276 11.96 17.204 12.012 17.116 12.012ZM16.816 5.412C16.64 5.412 16.508 5.344 16.42 5.208C16.34 5.072 16.3 4.904 16.3 4.704C16.3 4.616 16.304 4.552 16.312 4.512C16.304 4.384 16.376 4.32 16.528 4.32C16.64 4.32 16.752 4.348 16.864 4.404C16.984 4.452 17.02 4.488 16.972 4.512C17.052 4.72 17.092 4.884 17.092 5.004C17.092 5.108 17.068 5.192 17.02 5.256C16.972 5.312 16.904 5.364 16.816 5.412ZM19.6083 12.048C19.4963 12.08 19.4323 12.096 19.4163 12.096C19.3523 12.096 19.2843 12.064 19.2123 12C18.9483 11.608 18.7563 10.924 18.6363 9.948C18.5243 8.972 18.4683 8.132 18.4683 7.428C18.4683 7.316 18.5483 7.26 18.7083 7.26C18.9483 7.26 19.0683 7.392 19.0683 7.656C19.0683 7.728 19.0643 7.788 19.0563 7.836C19.1283 7.668 19.2643 7.496 19.4643 7.32C19.6643 7.144 19.8963 6.996 20.1603 6.876C20.4243 6.756 20.6923 6.696 20.9643 6.696C21.8203 6.696 22.4443 7.076 22.8363 7.836C23.2283 8.588 23.4243 9.524 23.4243 10.644C23.4243 11.028 23.3843 11.336 23.3043 11.568C23.2243 11.792 23.1163 11.904 22.9803 11.904C22.8363 11.904 22.7643 11.86 22.7643 11.772C22.8203 11.348 22.8483 10.932 22.8483 10.524C22.8483 9.492 22.6683 8.712 22.3083 8.184C21.9483 7.648 21.4723 7.38 20.8803 7.38C20.5923 7.38 20.3123 7.452 20.0403 7.596C19.7763 7.74 19.5603 7.94 19.3923 8.196C19.2323 8.452 19.1523 8.744 19.1523 9.072C19.1523 9.44 19.1723 9.76 19.2123 10.032C19.2523 10.304 19.3163 10.632 19.4043 11.016C19.5003 11.392 19.5683 11.736 19.6083 12.048ZM32.9543 12C32.7543 12.04 32.6143 11.944 32.5343 11.712C32.4543 11.472 32.4103 11.12 32.4023 10.656C32.3863 9.976 32.3623 9.408 32.3303 8.952C32.3063 8.488 32.2583 8.072 32.1863 7.704C31.4423 8.056 30.7063 8.38 29.9783 8.676C29.2583 8.964 28.8983 9.104 28.8983 9.096L28.9223 11.652C28.9223 11.772 28.8503 11.848 28.7063 11.88C28.5143 11.92 28.3863 11.812 28.3223 11.556C28.2663 11.292 28.2263 10.88 28.2023 10.32C28.1863 9.816 28.1623 9.46 28.1303 9.252C27.9063 9.364 27.7143 9.416 27.5543 9.408C27.5223 9.344 27.5063 9.212 27.5063 9.012C27.5703 8.988 27.6463 8.96 27.7343 8.928C27.8303 8.896 27.8983 8.86 27.9383 8.82C27.9863 8.772 28.0103 8.704 28.0103 8.616C28.0103 8.216 27.9703 7.6 27.8903 6.768C27.8023 6.016 27.7583 5.396 27.7583 4.908L27.7703 4.356C27.7943 4.3 27.8223 4.264 27.8543 4.248C27.8943 4.232 27.9463 4.224 28.0103 4.224C28.1463 4.224 28.2143 4.268 28.2143 4.356L28.7063 8.58C28.9303 8.524 29.3023 8.38 29.8223 8.148C30.3423 7.916 31.1423 7.54 32.2223 7.02L32.2703 4.356C32.2703 4.044 32.3863 3.888 32.6183 3.888C32.7143 3.888 32.7783 3.924 32.8103 3.996C32.8503 4.068 32.8623 4.188 32.8463 4.356L32.8343 6.432C32.8343 7.136 32.8743 8.052 32.9543 9.18C32.9783 9.404 32.9983 9.62 33.0143 9.828C33.0383 10.028 33.0583 10.22 33.0742 10.404C33.1223 10.9 33.1543 11.216 33.1703 11.352C33.1943 11.48 33.2303 11.596 33.2783 11.7C33.2383 11.86 33.1303 11.96 32.9543 12ZM36.8429 12.012C36.3709 12.012 35.9429 11.908 35.5589 11.7C35.1829 11.484 34.8869 11.188 34.6709 10.812C34.4629 10.428 34.3589 9.992 34.3589 9.504C34.3589 8.704 34.6509 8.108 35.2349 7.716C35.8269 7.324 36.5509 7.128 37.4069 7.128C37.7989 7.128 38.1629 7.224 38.4989 7.416C38.8429 7.608 39.1189 7.884 39.3269 8.244C39.5349 8.604 39.6389 9.02 39.6389 9.492C39.6389 10.004 39.5069 10.452 39.2429 10.836C38.9789 11.212 38.6309 11.504 38.1989 11.712C37.7749 11.912 37.3229 12.012 36.8429 12.012ZM36.7109 11.328C37.4549 11.328 38.0189 11.16 38.4029 10.824C38.7869 10.488 38.9789 9.996 38.9789 9.348C38.9789 8.908 38.8269 8.528 38.5229 8.208C38.2269 7.888 37.8109 7.728 37.2749 7.728C36.9149 7.728 36.5509 7.796 36.1829 7.932C35.8149 8.068 35.5109 8.272 35.2709 8.544C35.0309 8.816 34.9109 9.144 34.9109 9.528C34.9109 9.848 34.9909 10.148 35.1509 10.428C35.3109 10.7 35.5269 10.92 35.7989 11.088C36.0789 11.248 36.3829 11.328 36.7109 11.328ZM36.0029 6.168C35.8509 6.168 35.7189 6.104 35.6069 5.976C35.4949 5.84 35.4389 5.716 35.4389 5.604C35.4389 5.532 35.5029 5.416 35.6309 5.256C35.7669 5.096 35.8709 5.016 35.9429 5.016C36.1749 5.016 36.3509 5.084 36.4709 5.22C36.5909 5.356 36.6509 5.504 36.6509 5.664C36.6509 5.768 36.5789 5.88 36.4349 6C36.2989 6.112 36.1549 6.168 36.0029 6.168ZM37.8869 6.168C37.7189 6.168 37.5829 6.104 37.4789 5.976C37.3749 5.84 37.3229 5.716 37.3229 5.604C37.3229 5.532 37.3869 5.416 37.5149 5.256C37.6509 5.096 37.7589 5.016 37.8389 5.016C38.0549 5.016 38.2229 5.084 38.3429 5.22C38.4629 5.356 38.5229 5.504 38.5229 5.664C38.5229 5.768 38.4509 5.88 38.3069 6C38.1709 6.112 38.0309 6.168 37.8869 6.168ZM40.89 11.916C40.714 11.044 40.578 10.012 40.482 8.82C40.394 7.62 40.35 6.46 40.35 5.34C40.35 4.78 40.362 4.284 40.386 3.852C40.386 3.748 40.466 3.696 40.626 3.696C40.754 3.696 40.834 3.728 40.866 3.792C40.906 3.856 40.926 3.956 40.926 4.092C40.926 5.388 40.95 6.496 40.998 7.416C41.046 8.328 41.11 9.312 41.19 10.368C41.238 11.048 41.27 11.508 41.286 11.748C41.294 11.876 41.226 11.94 41.082 11.94C41.034 11.94 40.97 11.932 40.89 11.916ZM42.3056 10.584C42.4176 10.496 42.5256 10.452 42.6296 10.452C42.7256 10.452 42.8176 10.48 42.9056 10.536C43.0016 10.592 43.0976 10.664 43.1936 10.752C43.2896 10.832 43.3656 10.892 43.4216 10.932C43.6056 11.076 43.8576 11.188 44.1776 11.268C44.4976 11.348 44.8376 11.388 45.1976 11.388C45.6056 11.388 45.9696 11.312 46.2896 11.16C46.6176 11 46.7816 10.788 46.7816 10.524C46.7816 10.284 46.6936 10.096 46.5176 9.96C46.3416 9.816 46.1296 9.712 45.8816 9.648C45.6336 9.584 45.3056 9.524 44.8976 9.468C44.3456 9.404 43.9056 9.324 43.5776 9.228C43.2576 9.132 43.0016 8.976 42.8096 8.76C42.6176 8.536 42.5216 8.224 42.5216 7.824C42.5216 7.392 42.7256 7.072 43.1336 6.864C43.5416 6.648 44.0096 6.54 44.5376 6.54C45.0176 6.54 45.4256 6.644 45.7616 6.852C46.1056 7.052 46.2816 7.34 46.2896 7.716C46.3056 7.932 46.2736 8.104 46.1936 8.232C46.1136 8.352 46.0176 8.412 45.9056 8.412C45.8416 8.412 45.7856 8.388 45.7376 8.34C45.6976 8.292 45.6776 8.228 45.6776 8.148C45.6776 8.02 45.7216 7.88 45.8096 7.728C45.7696 7.536 45.6376 7.392 45.4136 7.296C45.1976 7.2 44.9376 7.152 44.6336 7.152C44.1856 7.152 43.8296 7.236 43.5656 7.404C43.3016 7.564 43.1696 7.756 43.1696 7.98C43.1696 8.22 43.2656 8.404 43.4576 8.532C43.6496 8.66 43.8816 8.752 44.1536 8.808C44.4336 8.856 44.8296 8.904 45.3416 8.952C45.7656 9.008 46.1096 9.076 46.3736 9.156C46.6456 9.236 46.8736 9.392 47.0576 9.624C47.2416 9.848 47.3336 10.172 47.3336 10.596C47.3336 11.036 47.1296 11.384 46.7216 11.64C46.3136 11.888 45.8256 12.012 45.2576 12.012C44.5296 12.012 43.8776 11.888 43.3016 11.64C42.7336 11.392 42.4016 11.04 42.3056 10.584ZM51.3031 12.012C50.3671 12.012 49.6391 11.8 49.1191 11.376C48.6071 10.944 48.3511 10.28 48.3511 9.384C48.3511 8.928 48.4631 8.496 48.6871 8.088C48.9191 7.672 49.2271 7.34 49.6111 7.092C50.0031 6.836 50.4231 6.708 50.8711 6.708C51.3271 6.708 51.7151 6.808 52.0351 7.008C52.3551 7.2 52.5151 7.48 52.5151 7.848C52.5151 8.104 52.4671 8.288 52.3711 8.4C52.2831 8.504 52.1831 8.556 52.0711 8.556C52.0711 8.172 51.9671 7.86 51.7591 7.62C51.5511 7.38 51.2551 7.26 50.8711 7.26C50.4871 7.26 50.1551 7.364 49.8751 7.572C49.5951 7.772 49.3791 8.04 49.2271 8.376C49.0831 8.704 49.0111 9.048 49.0111 9.408C49.0111 10.168 49.2671 10.684 49.7791 10.956C50.2991 11.228 50.9831 11.364 51.8311 11.364C52.1191 11.364 52.4951 11.348 52.9591 11.316C52.9751 11.316 53.0111 11.332 53.0671 11.364C53.1231 11.396 53.1671 11.416 53.1991 11.424V11.496C53.1991 11.728 52.9951 11.872 52.5871 11.928C52.1791 11.984 51.7511 12.012 51.3031 12.012ZM55.0031 11.976C54.9631 11.984 54.9191 11.832 54.8711 11.52C54.8311 11.208 54.7751 10.672 54.7031 9.912C54.5911 8.664 54.4631 7.52 54.3191 6.48C54.1831 5.44 54.0111 4.54 53.8031 3.78C53.7871 3.716 53.8111 3.66 53.8751 3.612C53.9391 3.564 54.0271 3.54 54.1391 3.54C54.1951 3.54 54.2391 3.544 54.2711 3.552C54.4711 4.096 54.6111 4.576 54.6911 4.992C54.7791 5.408 54.8591 5.92 54.9311 6.528L54.9911 6.996C55.4711 6.708 55.9111 6.564 56.3111 6.564C57.0391 6.564 57.5551 6.896 57.8591 7.56C58.1711 8.216 58.3271 9.152 58.3271 10.368C58.3271 10.832 58.2991 11.224 58.2431 11.544C58.1871 11.856 58.1191 12.012 58.0391 12.012C57.9351 12.012 57.8191 11.936 57.6911 11.784V11.388L57.7031 10.08C57.7031 9.832 57.6951 9.524 57.6791 9.156C57.6551 8.532 57.5271 8.06 57.2951 7.74C57.0711 7.42 56.6831 7.26 56.1311 7.26C55.7631 7.26 55.4191 7.396 55.0991 7.668C55.0991 7.972 55.1111 8.284 55.1351 8.604C55.1671 8.924 55.2031 9.236 55.2431 9.54C55.2991 9.964 55.3391 10.34 55.3631 10.668C55.3951 10.988 55.4111 11.344 55.4111 11.736C55.3631 11.832 55.3071 11.896 55.2431 11.928C55.1871 11.96 55.1071 11.976 55.0031 11.976ZM62.2104 12C61.6984 12 61.2264 11.9 60.7944 11.7C60.3624 11.5 60.0184 11.216 59.7624 10.848C59.5064 10.48 59.3784 10.056 59.3784 9.576C59.3784 9.04 59.4784 8.54 59.6784 8.076C59.8784 7.604 60.1704 7.228 60.5544 6.948C60.9464 6.66 61.4024 6.516 61.9224 6.516C62.4664 6.516 62.8784 6.692 63.1584 7.044C63.4384 7.388 63.5704 7.824 63.5544 8.352C63.5544 8.824 63.3664 9.184 62.9904 9.432C62.6224 9.68 62.1504 9.804 61.5744 9.804C61.4864 9.804 61.3544 9.796 61.1784 9.78C60.8904 9.748 60.6864 9.704 60.5664 9.648C60.4464 9.592 60.3864 9.48 60.3864 9.312C60.3864 9.256 60.4024 9.216 60.4344 9.192C60.4664 9.16 60.5304 9.144 60.6264 9.144C60.7304 9.144 60.9144 9.168 61.1784 9.216C61.4344 9.264 61.6624 9.288 61.8624 9.288C62.5984 9.288 62.9664 8.968 62.9664 8.328C62.9664 7.944 62.8944 7.64 62.7504 7.416C62.6144 7.192 62.3704 7.08 62.0184 7.08C61.6344 7.08 61.2904 7.184 60.9864 7.392C60.6824 7.592 60.4464 7.856 60.2784 8.184C60.1184 8.512 60.0384 8.86 60.0384 9.228C60.0384 9.86 60.2144 10.38 60.5664 10.788C60.9184 11.188 61.4624 11.388 62.1984 11.388C62.2864 11.388 62.4344 11.38 62.6424 11.364C62.7304 11.356 62.8384 11.332 62.9664 11.292C63.0944 11.252 63.1864 11.224 63.2424 11.208C63.5864 11.088 63.8384 11.028 63.9984 11.028C64.1184 11.028 64.2104 11.06 64.2744 11.124C64.0744 11.428 63.7744 11.652 63.3744 11.796C62.9824 11.932 62.5944 12 62.2104 12ZM65.8133 12C65.4853 11.36 65.2253 10.608 65.0333 9.744C64.8493 8.88 64.7573 8.132 64.7573 7.5C64.7573 7.252 64.8133 7.092 64.9253 7.02C64.9893 6.98 65.0373 6.96 65.0693 6.96C65.1253 6.96 65.1653 7.004 65.1893 7.092C65.2213 7.18 65.2533 7.34 65.2853 7.572L65.3453 8.004C65.4333 7.572 65.6013 7.232 65.8493 6.984C66.1053 6.728 66.4173 6.6 66.7853 6.6C67.1933 6.6 67.4973 6.68 67.6973 6.84C67.8973 6.992 67.9973 7.248 67.9973 7.608C67.5973 7.416 67.2333 7.32 66.9053 7.32C66.5933 7.32 66.3253 7.404 66.1013 7.572C65.8773 7.74 65.7213 7.988 65.6333 8.316C65.5613 8.54 65.5253 8.752 65.5253 8.952C65.5253 9.168 65.5533 9.372 65.6093 9.564C65.6733 9.748 65.7693 9.976 65.8973 10.248C66.0173 10.528 66.1093 10.768 66.1733 10.968C66.2453 11.168 66.2853 11.384 66.2933 11.616C66.2933 11.752 66.2453 11.852 66.1493 11.916C66.0533 11.972 65.9413 12 65.8133 12Z" fill="black"/>
</g>
<defs>
<clipPath id="clip0_0_1">
<rect width="68" height="18" fill="white"/>
</clipPath>
</defs>
</svg>
